<svg width="495" height="289" viewBox="0 0 495 289" fill="none" xmlns="http://www.w3.org/2000/svg">
<path d="M490.603 109.543L490.384 140.646C474.81 136.287 461.189 135.065 449.536 136.966C442.394 138.135 438.698 140.722 438.442 144.727C438.412 148.739 447.802 151.929 466.604 154.29C485.625 157.993 495.083 166.161 495 178.779C494.856 198.667 481.371 210.81 454.537 215.192C444.046 216.904 431.496 216.376 416.887 213.6L409.398 222.907L409.639 188.191C424.798 195.024 439.475 197.28 453.677 194.957C461.272 193.712 465.073 190.929 465.103 186.608C465.133 182.505 457.795 179.495 443.095 177.58C430.84 175.8 421.789 172.511 415.937 167.722C411.419 163.159 409.186 157.269 409.239 150.044C409.307 140.631 414.556 132.448 425.002 125.487C432.439 121.022 441.421 117.922 451.957 116.203C459.952 114.898 470.315 115.358 483.053 117.598L490.603 109.551V109.543Z" fill="white"/>
<path d="M400.105 125.885L399.902 154.65L392.91 150.117L365.849 154.545L365.382 221.307L371.031 227.333L330.379 233.977L336.458 225.704L336.926 159.281L310.001 163.685L302.994 170.511L303.198 141.746L400.105 125.9V125.885Z" fill="white"/>
<path d="M232.544 153.211L265.223 147.863L311.893 237.048L271.506 243.655L277.253 235.366L272.969 226.112L226.623 233.692L221.532 244.477L227.174 250.903L192.148 256.627L235.779 159.961L232.551 153.203L232.544 153.211ZM233.449 214.935L265.796 209.648L250.034 177.617L233.449 214.942V214.935Z" fill="white"/>
<path d="M104.894 174.154L196.115 159.236L195.934 185.188L188.339 180.414L139.044 188.477L138.908 207.475L170.253 202.347L177.599 195.129L177.38 226.104L170.125 221.277L138.78 226.406L138.644 245.404L187.939 237.342L195.617 230.071L195.436 256.023L104.215 270.941L110.294 262.668L110.874 180.452L104.901 174.147L104.894 174.154Z" fill="white"/>
<path d="M34.3012 242.561L34.1654 261.823L54.1217 258.557C63.9037 256.959 68.8135 253.127 68.8513 247.063C68.8965 240.283 64.145 237.674 54.5893 239.242L34.2936 242.561H34.3012ZM54.0387 223.027C64.0394 221.39 69.0624 217.695 69.1001 211.948C69.1529 204.858 64.0621 202.151 53.8351 203.817L34.5501 206.97L34.4143 226.232L54.0387 223.027ZM61.362 181.274C86.0094 177.247 98.2652 184.216 98.1445 202.188C98.0616 214.271 92.7369 222.295 82.1856 226.247C92.7067 226.753 97.9183 233.608 97.8278 246.807C97.7071 263.663 85.3231 274.109 60.6832 278.137L0 288.062L5.74703 279.841L6.31268 198.9L0.678783 191.2L61.3545 181.274H61.362Z" fill="white"/>
<path d="M472.757 83.5289L464.408 80.9646L472.81 75.7305L472.757 83.5289Z" fill="white"/>
<path d="M447.122 8.13945L446.436 106.126L491.281 98.7947L491.967 0.808594L447.122 8.13945ZM458.216 24.8979C458.277 16.2321 462.244 11.2619 470.11 9.97217C477.848 8.70511 481.672 12.3555 481.612 20.9157L481.521 33.5863L479.794 32.4097L459.906 35.6603L458.133 37.4101L458.224 24.8979H458.216ZM457.975 58.8747L471.573 44.6882L459.747 46.6189L458.05 48.248L458.111 40.0498L459.86 41.2037L481.514 37.6665L481.476 42.9007L467.629 57.8339L479.628 55.873L481.4 54.1459L481.34 62.3441L479.613 61.2505L459.808 64.486L457.922 66.1679L457.975 58.8672V58.8747ZM481.287 72.9105L479.515 71.8244L477.101 73.2725L477.026 84.4498L479.424 85.2719L481.212 83.6051L481.152 92.0597L459.536 85.2266L457.764 86.3051L457.817 78.4237L481.348 63.1662L481.28 72.9105H481.287ZM476.77 22.6051C476.8 18.291 474.552 16.496 470.02 17.2352C465.487 17.9743 463.119 20.5763 463.088 25.0035L463.066 28.1711L476.747 25.9311L476.77 22.5975V22.6051Z" fill="white"/>
<path d="M432.598 10.5137L432.386 41.0212C417.106 36.7449 403.749 35.5457 392.323 37.4161C385.317 38.5625 381.689 41.0966 381.44 45.026C381.41 48.963 390.619 52.0854 409.066 54.4008C427.718 58.036 437.002 66.0457 436.919 78.4222C436.783 97.9334 423.555 109.835 397.225 114.141C386.938 115.823 374.622 115.303 360.292 112.58L352.946 121.713L353.188 87.6612C368.06 94.3585 382.458 96.5759 396.381 94.2982C403.825 93.0839 407.566 90.3537 407.596 86.1075C407.626 82.0801 400.423 79.1311 386.003 77.2532C373.988 75.5034 365.104 72.283 359.364 67.5843C354.937 63.1118 352.743 57.3271 352.788 50.2451C352.856 41.0137 358.007 32.9814 368.249 26.1559C375.542 21.7739 384.359 18.7345 394.691 17.0451C402.528 15.7629 412.702 16.223 425.191 18.4177L432.598 10.5212V10.5137Z" fill="white"/>
<path d="M255.812 40.9323L345.283 26.3008L345.102 51.7627L337.658 47.0791L289.306 54.9831L289.178 73.6195L319.919 68.589L327.122 61.5145L326.911 91.8939L319.791 87.1575L289.05 92.188L288.922 110.824L337.274 102.92L344.801 95.7931L344.62 121.255L255.148 135.887L261.114 127.771L261.68 47.1319L255.82 40.9474L255.812 40.9323Z" fill="white"/>
<path d="M245.561 42.6074L245.365 70.8222L238.509 66.3724L211.969 70.7091L211.509 136.189L217.044 142.102L177.17 148.626L183.135 140.511L183.596 75.3549L157.183 79.6765L150.312 86.3739L150.509 58.1591L245.568 42.615L245.561 42.6074Z" fill="white"/>
<path d="M103.333 65.8657L143.208 59.3418L137.574 67.0799L137.001 148.376L142.537 154.289L102.662 160.812L108.628 152.697L109.194 72.0577L103.333 65.8732V65.8657Z" fill="white"/>
<path d="M34.4204 132.907L34.2847 151.807L53.8638 148.609C63.4573 147.041 68.2691 143.285 68.3143 137.334C68.3596 130.682 63.6986 128.125 54.3239 129.656L34.4204 132.914V132.907ZM53.7808 113.75C63.593 112.143 68.518 108.523 68.5557 102.882C68.6009 95.9281 63.6156 93.2658 53.5847 94.9099L34.6618 98.0022L34.526 116.903L53.7733 113.757L53.7808 113.75ZM60.9608 72.7891C85.1331 68.8371 97.1626 75.6702 97.0344 93.3035C96.9514 105.16 91.7324 113.026 81.3847 116.903C91.7022 117.4 96.8232 124.12 96.7252 137.07C96.6121 153.602 84.4618 163.852 60.2896 167.804L0.775391 177.533L6.40929 169.471L6.9674 90.0755L1.44663 82.5259L60.9684 72.7967L60.9608 72.7891Z" fill="white"/>
</svg>
